<?xml version="1.0" encoding="UTF-8"?>
<svg width="700pt" height="700pt" version="1.1" viewBox="0 0 700 700" xmlns="http://www.w3.org/2000/svg" xmlns:xlink="http://www.w3.org/1999/xlink">
 <defs>
  <symbol id="u" overflow="visible">
   <path d="m7.9062-0.46875c-0.40625 0.21094-0.83594 0.36719-1.2812 0.46875-0.4375 0.11328-0.89844 0.17188-1.375 0.17188-1.4297 0-2.5625-0.39844-3.4062-1.2031-0.83594-0.80078-1.25-1.8906-1.25-3.2656s0.41406-2.4609 1.25-3.2656c0.84375-0.80078 1.9766-1.2031 3.4062-1.2031 0.47656 0 0.9375 0.058594 1.375 0.17188 0.44531 0.10547 0.875 0.26172 1.2812 0.46875v1.7812c-0.40625-0.28125-0.8125-0.48438-1.2188-0.60938-0.39844-0.13281-0.8125-0.20312-1.25-0.20312-0.79297 0-1.418 0.25781-1.875 0.76562-0.44922 0.5-0.67188 1.1992-0.67188 2.0938 0 0.88672 0.22266 1.5859 0.67188 2.0938 0.45703 0.51172 1.082 0.76562 1.875 0.76562 0.4375 0 0.85156-0.0625 1.25-0.1875 0.40625-0.13281 0.8125-0.34375 1.2188-0.625z"/>
  </symbol>
  <symbol id="e" overflow="visible">
   <path d="m5.7969-4.7031c-0.1875-0.082031-0.37109-0.14453-0.54688-0.1875-0.17969-0.039063-0.35547-0.0625-0.53125-0.0625-0.53125 0-0.94531 0.17188-1.2344 0.51562-0.28125 0.34375-0.42188 0.83594-0.42188 1.4688v2.9688h-2.0781v-6.4531h2.0781v1.0469c0.25781-0.41406 0.5625-0.71875 0.90625-0.90625 0.34375-0.19531 0.75391-0.29688 1.2344-0.29688 0.070313 0 0.14453 0.007813 0.21875 0.015625 0.082031 0 0.20312 0.011719 0.35938 0.03125z"/>
  </symbol>
  <symbol id="b" overflow="visible">
   <path d="m7.4375-3.25v0.59375h-4.8281c0.050781 0.48047 0.22656 0.84375 0.53125 1.0938 0.30078 0.24219 0.71875 0.35938 1.25 0.35938 0.4375 0 0.87891-0.0625 1.3281-0.1875 0.45703-0.13281 0.92969-0.33203 1.4219-0.59375v1.5938c-0.49219 0.1875-0.98047 0.32812-1.4688 0.42188-0.49219 0.09375-0.98047 0.14062-1.4688 0.14062-1.168 0-2.0781-0.29688-2.7344-0.89062-0.64844-0.59375-0.96875-1.4258-0.96875-2.5 0-1.0508 0.31641-1.8789 0.95312-2.4844 0.64453-0.60156 1.5234-0.90625 2.6406-0.90625 1.0078 0 1.8164 0.30859 2.4219 0.92188 0.61328 0.60547 0.92188 1.418 0.92188 2.4375zm-2.125-0.6875c0-0.38281-0.11719-0.69531-0.34375-0.9375-0.23047-0.25-0.52734-0.375-0.89062-0.375-0.39844 0-0.71875 0.11719-0.96875 0.34375-0.25 0.23047-0.40625 0.55469-0.46875 0.96875z"/>
  </symbol>
  <symbol id="d" overflow="visible">
   <path d="m3.8906-2.9062c-0.4375 0-0.76562 0.074219-0.98438 0.21875-0.21094 0.14844-0.3125 0.35938-0.3125 0.64062 0 0.26172 0.082031 0.46875 0.25 0.625 0.17578 0.14844 0.42188 0.21875 0.73438 0.21875 0.39453 0 0.72266-0.14062 0.98438-0.42188 0.25781-0.28125 0.39062-0.62891 0.39062-1.0469v-0.23438zm3.1562-0.78125v3.6875h-2.0938v-0.95312c-0.27344 0.38672-0.58594 0.67188-0.9375 0.85938-0.34375 0.17578-0.76172 0.26562-1.25 0.26562-0.66797 0-1.2148-0.19141-1.6406-0.57812-0.41797-0.39453-0.625-0.90625-0.625-1.5312 0-0.75781 0.25781-1.3164 0.78125-1.6719 0.53125-0.35156 1.3516-0.53125 2.4688-0.53125h1.2031v-0.15625c0-0.32031-0.13281-0.5625-0.39062-0.71875-0.25-0.15625-0.64844-0.23438-1.1875-0.23438-0.44922 0-0.86719 0.046875-1.25 0.14062-0.375 0.085937-0.72656 0.21484-1.0469 0.39062v-1.5625c0.4375-0.11328 0.87891-0.19531 1.3281-0.25 0.44531-0.050781 0.89453-0.078125 1.3438-0.078125 1.1562 0 1.9922 0.23047 2.5156 0.6875 0.51953 0.46094 0.78125 1.2031 0.78125 2.2344z"/>
  </symbol>
  <symbol id="c" overflow="visible">
   <path d="m3.25-8.2969v1.8438h2.125v1.4688h-2.125v2.7344c0 0.30469 0.054688 0.50781 0.17188 0.60938 0.125 0.10547 0.36328 0.15625 0.71875 0.15625h1.0625v1.4844h-1.7812c-0.8125 0-1.3906-0.16406-1.7344-0.5-0.33594-0.34375-0.5-0.92578-0.5-1.75v-2.7344h-1.0312v-1.4688h1.0312v-1.8438z"/>
  </symbol>
  <symbol id="k" overflow="visible">
   <path d="m5.3906-5.5156v-3.4531h2.0781v8.9688h-2.0781v-0.9375c-0.29297 0.38672-0.60938 0.66797-0.95312 0.84375-0.33594 0.17578-0.72656 0.26562-1.1719 0.26562-0.80469 0-1.4609-0.31641-1.9688-0.95312-0.51172-0.63281-0.76562-1.4453-0.76562-2.4375 0-1 0.25391-1.8125 0.76562-2.4375 0.50781-0.63281 1.1641-0.95312 1.9688-0.95312 0.4375 0 0.82812 0.089844 1.1719 0.26562 0.34375 0.17969 0.66016 0.45312 0.95312 0.82812zm-1.3594 4.1875c0.4375 0 0.76953-0.16016 1-0.48438 0.23828-0.32031 0.35938-0.78906 0.35938-1.4062 0-0.61328-0.12109-1.082-0.35938-1.4062-0.23047-0.32031-0.5625-0.48438-1-0.48438s-0.77734 0.16406-1.0156 0.48438c-0.23047 0.32422-0.34375 0.79297-0.34375 1.4062 0 0.61719 0.11328 1.0859 0.34375 1.4062 0.23828 0.32422 0.57812 0.48438 1.0156 0.48438z"/>
  </symbol>
  <symbol id="j" overflow="visible">
   <path d="m4.4375-1.3281c0.4375 0 0.76953-0.16016 1-0.48438 0.23828-0.32031 0.35938-0.78906 0.35938-1.4062 0-0.61328-0.12109-1.082-0.35938-1.4062-0.23047-0.32031-0.5625-0.48438-1-0.48438-0.44922 0-0.79297 0.16406-1.0312 0.48438-0.23047 0.32422-0.34375 0.79297-0.34375 1.4062 0 0.60547 0.11328 1.0742 0.34375 1.4062 0.23828 0.32422 0.58203 0.48438 1.0312 0.48438zm-1.375-4.1875c0.28125-0.375 0.59375-0.64844 0.9375-0.82812 0.34375-0.17578 0.74219-0.26562 1.2031-0.26562 0.78906 0 1.4414 0.32031 1.9531 0.95312 0.50781 0.625 0.76562 1.4375 0.76562 2.4375 0 0.99219-0.25781 1.8047-0.76562 2.4375-0.51172 0.63672-1.1641 0.95312-1.9531 0.95312-0.46094 0-0.85938-0.089844-1.2031-0.26562-0.34375-0.1875-0.65625-0.46875-0.9375-0.84375v0.9375h-2.0781v-8.9688h2.0781z"/>
  </symbol>
  <symbol id="g" overflow="visible">
   <path d="m0.14062-6.4531h2.0625l1.7344 4.375 1.4844-4.375h2.0625l-2.7188 7.0625c-0.27344 0.71875-0.58984 1.2188-0.95312 1.5-0.36719 0.28906-0.84375 0.4375-1.4375 0.4375h-1.1875v-1.3594h0.64062c0.35156 0 0.60938-0.058594 0.76562-0.17188 0.15625-0.10547 0.28125-0.30469 0.375-0.59375l0.046875-0.17188z"/>
  </symbol>
  <symbol id="i" overflow="visible">
   <path d="m8.8281-0.64062c-0.55469 0.27344-1.1328 0.47656-1.7344 0.60938-0.59375 0.13281-1.2109 0.20312-1.8438 0.20312-1.4297 0-2.5625-0.39844-3.4062-1.2031-0.83594-0.80078-1.25-1.8906-1.25-3.2656 0-1.3828 0.42578-2.4727 1.2812-3.2656 0.85156-0.80078 2.0195-1.2031 3.5-1.2031 0.57031 0 1.1172 0.058594 1.6406 0.17188 0.53125 0.10547 1.0234 0.26172 1.4844 0.46875v1.7812c-0.48047-0.26953-0.96094-0.47266-1.4375-0.60938-0.46875-0.13281-0.94531-0.20312-1.4219-0.20312-0.88672 0-1.5703 0.25-2.0469 0.75-0.46875 0.49219-0.70312 1.1953-0.70312 2.1094 0 0.90625 0.22656 1.6094 0.6875 2.1094 0.45703 0.5 1.1133 0.75 1.9688 0.75 0.22656 0 0.44141-0.015625 0.64062-0.046875 0.19531-0.03125 0.375-0.078125 0.53125-0.14062v-1.6719h-1.3594v-1.4844h3.4688z"/>
  </symbol>
  <symbol id="f" overflow="visible">
   <path d="m7.4844-3.9375v3.9375h-2.0781v-3.0156c0-0.55078-0.015625-0.92969-0.046875-1.1406-0.023437-0.21875-0.058594-0.375-0.10938-0.46875-0.085938-0.13281-0.19922-0.23828-0.34375-0.3125-0.13672-0.082031-0.29297-0.125-0.46875-0.125-0.42969 0-0.76562 0.16797-1.0156 0.5-0.24219 0.33594-0.35938 0.79688-0.35938 1.3906v3.1719h-2.0781v-6.4531h2.0781v0.9375c0.3125-0.375 0.64062-0.64844 0.98438-0.82812 0.35156-0.17578 0.73828-0.26562 1.1562-0.26562 0.75 0 1.3164 0.23047 1.7031 0.6875 0.38281 0.44922 0.57812 1.1094 0.57812 1.9844z"/>
  </symbol>
  <symbol id="t" overflow="visible">
   <path d="m1.0781-8.6094h2.2344v3.1406l3.1875-3.1406h2.5781l-4.1406 4.0781 4.5781 4.5312h-2.7812l-3.4219-3.3906v3.3906h-2.2344z"/>
  </symbol>
  <symbol id="h" overflow="visible">
   <path d="m7.4844-3.9375v3.9375h-2.0781v-3c0-0.5625-0.015625-0.94531-0.046875-1.1562-0.023437-0.21875-0.058594-0.375-0.10938-0.46875-0.085938-0.13281-0.19922-0.23828-0.34375-0.3125-0.13672-0.082031-0.29297-0.125-0.46875-0.125-0.42969 0-0.76562 0.16797-1.0156 0.5-0.24219 0.33594-0.35938 0.79688-0.35938 1.3906v3.1719h-2.0781v-8.9688h2.0781v3.4531c0.3125-0.375 0.64062-0.64844 0.98438-0.82812 0.35156-0.17578 0.73828-0.26562 1.1562-0.26562 0.75 0 1.3164 0.23047 1.7031 0.6875 0.38281 0.44922 0.57812 1.1094 0.57812 1.9844z"/>
  </symbol>
  <symbol id="a" overflow="visible">
   <path d="m4.0625-5.1406c-0.46094 0-0.80859 0.16797-1.0469 0.5-0.24219 0.32422-0.35938 0.79688-0.35938 1.4219 0 0.61719 0.11719 1.0898 0.35938 1.4219 0.23828 0.32422 0.58594 0.48438 1.0469 0.48438 0.44531 0 0.78906-0.16016 1.0312-0.48438 0.23828-0.33203 0.35938-0.80469 0.35938-1.4219 0-0.625-0.12109-1.0977-0.35938-1.4219-0.24219-0.33203-0.58594-0.5-1.0312-0.5zm0-1.4688c1.1133 0 1.9844 0.30469 2.6094 0.90625 0.625 0.59375 0.9375 1.4219 0.9375 2.4844s-0.3125 1.8984-0.9375 2.5c-0.625 0.59375-1.4961 0.89062-2.6094 0.89062-1.1172 0-1.9922-0.29688-2.625-0.89062-0.625-0.60156-0.9375-1.4375-0.9375-2.5s0.3125-1.8906 0.9375-2.4844c0.63281-0.60156 1.5078-0.90625 2.625-0.90625z"/>
  </symbol>
  <symbol id="s" overflow="visible">
   <path d="m1.0781-8.6094h2.2344v6.9375h3.8906v1.6719h-6.125z"/>
  </symbol>
  <symbol id="r" overflow="visible">
   <path d="m5.25-8.9688v1.3438h-1.1562c-0.29297 0-0.49609 0.058594-0.60938 0.17188-0.11719 0.10547-0.17188 0.28906-0.17188 0.54688v0.45312h1.7656v1.4688h-1.7656v4.9844h-2.0625v-4.9844h-1.0312v-1.4688h1.0312v-0.45312c0-0.70703 0.19141-1.2266 0.57812-1.5625 0.39453-0.33203 1.0039-0.5 1.8281-0.5z"/>
  </symbol>
  <symbol id="q" overflow="visible">
   <path d="m6.9844-5.3906c0.25781-0.39453 0.56641-0.69531 0.92188-0.90625 0.36328-0.20703 0.75781-0.3125 1.1875-0.3125 0.73828 0 1.3008 0.23047 1.6875 0.6875 0.39453 0.44922 0.59375 1.1094 0.59375 1.9844v3.9375h-2.0781v-3.375-0.14062c0.007813-0.0625 0.015625-0.14062 0.015625-0.23438 0-0.45703-0.070312-0.78906-0.20312-1-0.13672-0.20703-0.35547-0.3125-0.65625-0.3125-0.38672 0-0.6875 0.16406-0.90625 0.48438-0.21094 0.32422-0.32031 0.79297-0.32812 1.4062v3.1719h-2.0781v-3.375c0-0.70703-0.0625-1.1641-0.1875-1.375-0.125-0.20703-0.34375-0.3125-0.65625-0.3125-0.39844 0-0.70312 0.16797-0.92188 0.5-0.21094 0.32422-0.3125 0.78906-0.3125 1.3906v3.1719h-2.0781v-6.4531h2.0781v0.9375c0.25-0.36328 0.53516-0.63281 0.85938-0.8125 0.33203-0.1875 0.69531-0.28125 1.0938-0.28125 0.44531 0 0.84375 0.10938 1.1875 0.32812 0.34375 0.21094 0.60156 0.50781 0.78125 0.89062z"/>
  </symbol>
  <symbol id="p" overflow="visible">
   <path d="m1.0781-8.6094h2.4844l3.1406 5.9062v-5.9062h2.0938v8.6094h-2.4688l-3.1406-5.9062v5.9062h-2.1094z"/>
  </symbol>
  <symbol id="o" overflow="visible">
   <path d="m0.92188-2.5156v-3.9375h2.0781v0.64062c0 0.34375-0.007812 0.78125-0.015625 1.3125v1.0625c0 0.52344 0.007813 0.89844 0.03125 1.125 0.03125 0.23047 0.082031 0.39844 0.15625 0.5 0.082031 0.13672 0.19141 0.24219 0.32812 0.3125 0.13281 0.074219 0.28906 0.10938 0.46875 0.10938 0.42578 0 0.76562-0.16406 1.0156-0.5 0.25-0.33203 0.375-0.78906 0.375-1.375v-3.1875h2.0625v6.4531h-2.0625v-0.9375c-0.3125 0.375-0.64844 0.65625-1 0.84375-0.34375 0.17578-0.72656 0.26562-1.1406 0.26562-0.75 0-1.3242-0.22656-1.7188-0.6875-0.38672-0.45703-0.57812-1.125-0.57812-2z"/>
  </symbol>
  <symbol id="n" overflow="visible">
   <path d="m1.0781-8.6094h3.6875c1.0938 0 1.9297 0.24609 2.5156 0.73438 0.59375 0.48047 0.89062 1.1719 0.89062 2.0781 0 0.89844-0.29688 1.5898-0.89062 2.0781-0.58594 0.49219-1.4219 0.73438-2.5156 0.73438h-1.4531v2.9844h-2.2344zm2.2344 1.6094v2.4062h1.2188c0.42578 0 0.75781-0.10156 1-0.3125 0.23828-0.20703 0.35938-0.50391 0.35938-0.89062 0-0.38281-0.12109-0.67969-0.35938-0.89062-0.24219-0.20703-0.57422-0.3125-1-0.3125z"/>
  </symbol>
  <symbol id="m" overflow="visible">
   <path d="m0.98438-6.4531h2.0781v6.3438c0 0.86328-0.21094 1.5195-0.625 1.9688-0.41797 0.45703-1.0234 0.6875-1.8125 0.6875h-1.0156v-1.3594h0.35938c0.38281 0 0.64844-0.089844 0.79688-0.26562 0.14453-0.17969 0.21875-0.52344 0.21875-1.0312zm0-2.5156h2.0781v1.6719h-2.0781z"/>
  </symbol>
  <symbol id="l" overflow="visible">
   <path d="m6.2188-6.2656v1.6875c-0.28125-0.1875-0.57031-0.32812-0.85938-0.42188-0.28125-0.09375-0.57422-0.14062-0.875-0.14062-0.57422 0-1.0234 0.17188-1.3438 0.51562-0.32422 0.33594-0.48438 0.80469-0.48438 1.4062 0 0.60547 0.16016 1.0742 0.48438 1.4062 0.32031 0.33594 0.76953 0.5 1.3438 0.5 0.32031 0 0.62891-0.046875 0.92188-0.14062 0.28906-0.09375 0.5625-0.23438 0.8125-0.42188v1.6875c-0.32422 0.11719-0.65234 0.20312-0.98438 0.26562-0.33594 0.0625-0.66797 0.09375-1 0.09375-1.168 0-2.0859-0.29688-2.75-0.89062-0.65625-0.60156-0.98438-1.4375-0.98438-2.5 0-1.0703 0.32812-1.9062 0.98438-2.5 0.66406-0.59375 1.582-0.89062 2.75-0.89062 0.33203 0 0.66016 0.03125 0.98438 0.09375 0.33203 0.054687 0.66406 0.13672 1 0.25z"/>
  </symbol>
 </defs>
 <g>
  <path d="m335.88 58.785c4.5352 0.003906 8.418 2.6289 10.328 6.418 2.1289-2.6055 5.3281-4.3008 8.9492-4.3008 5.4648 0 10.012 3.7852 11.246 8.8711 2.125-2.3789 5.1836-3.9023 8.6211-3.9062 6.4141 0.003906 11.605 5.2031 11.609 11.613h-0.003906c0 5.6328-4.0117 10.324-9.3398 11.379v17.129c26.871-2.6367 47.871-25.297 47.871-52.863 0-29.34-23.785-53.125-53.125-53.125s-53.125 23.781-53.125 53.125c0 4.8984 0.67578 9.6367 1.918 14.137 1.2969 0.35547 2.5117 0.89844 3.5859 1.6484 0.74609-5.7031 5.5625-10.121 11.465-10.125z"/>
  <path d="m437.89 124.55c-8.375-4.2227-15.73-5.0625-19.918-5.0469-1.5 0-2.6406 0.097656-3.3867 0.19922h-37.297v25.957c0 7.8086-6.3555 14.164-14.164 14.164h-38.168c-6.4492 0-11.891-4.332-13.602-10.234h-4.5039c-8.1914 0-15.086-5.6094-17.094-13.18-11.398 2.2578-28.309 5.25-43.496 7.543 0.023437-0.035157 0.046875-0.0625 0.070312-0.097657 2.5977-0.95312 6.0977-2.1367 10.336-3.3711 9.4922-2.832 23.062-6.3711 41.309-10.633 10.148-2.375 16.465-12.531 14.09-22.688-2.375-10.16-12.531-16.465-22.688-14.09-24.355 5.6914-40.918 10.164-52.199 13.957-5.6914 1.9414-9.9883 3.6016-14.055 5.7969-2.0547 1.1523-4.1016 2.3555-6.6289 4.7383-1.25 1.2227-2.6602 2.7852-4.0156 5.1953-1.3359 2.3789-2.5859 5.8359-2.582 9.8633-0.078126 5.4766 2.5625 10.645 5.082 13.324 0.49219 0.54688 0.96875 1.0234 1.4414 1.4609 1.9414 1.8203 3.6797 2.8125 5.1289 3.5781 0.023438 0.011719 0.042969 0.027344 0.066407 0.039063 3.8828 1.8711 6.4727 2.3398 9.1953 2.8867 7.8203 1.3477 16.676 1.5312 27.023 1.5781 11.234-0.007812 23.629-0.40625 34.477-0.80469 5.9102-0.21875 11.395-0.43359 15.863-0.58203v376.71c0 16.125 13.074 29.191 29.191 29.191 16.121 0 29.195-13.062 29.195-29.191v-213.13h10.945v213.13c0 16.125 13.074 29.191 29.191 29.191 16.121 0 29.195-13.062 29.195-29.191l-0.003906-354.29c1.3984 2.8711 2.8086 6.1641 4.1992 10 6.6523 18.441 12.25 48.707 12.234 95.949 0 13.02-0.42188 27.316-1.3359 43.031-0.61328 10.41 7.3398 19.348 17.754 19.957 0.37109 0.023438 0.74219 0.035157 1.1172 0.035157 9.9297 0 18.254-7.75 18.844-17.785 0.94922-16.379 1.3945-31.41 1.3945-45.234-0.097656-71.262-11.477-110.7-26.996-134.42-7.75-11.773-16.824-19.324-25.211-23.508z"/>
  <path d="m306.86 133.06h3.9336v-5.3672c-1.4961 1.582-3.207 2.9727-5.1172 4.1016v0.09375c-0.003906 0.64062 0.53125 1.1719 1.1836 1.1719z"/>
  <path d="m299.44 88.566c3.4805 0.86328 6.6562 2.5117 9.3516 4.7539l6.7188 0.003907v9.1953c0.46484 1.1445 0.85547 2.3359 1.1484 3.5742 1.1562 4.9453 0.64062 9.8867-1.1484 14.262v17.438h-8.6562c-2.582-0.003907-4.7539-1.6758-5.5547-3.9844-0.73438 0.24609-1.4805 0.46875-2.25 0.64844-1.2852 0.30078-2.8789 0.64844-4.6719 1.0234 1.5586 5.4258 6.543 9.3945 12.473 9.3945l8.6562 0.003906v0.78906c0 5.2148 4.2305 9.4453 9.4453 9.4453h38.168c5.2148 0 9.4453-4.2305 9.4453-9.4453v-56.855c-4.3398-0.9375-7.7461-4.3008-8.7891-8.5977-2.125 2.3789-5.1836 3.9023-8.6211 3.9023-3.9336 0-7.3984-1.9648-9.5-4.9648h-2.2422c-2.0312 1.75-4.6484 2.8477-7.5391 2.8477-2.4805 0-4.7617-0.78906-6.6445-2.1094-0.73438 5.7031-5.5508 10.125-11.457 10.125-3.3867 0-6.4062-1.4727-8.5273-3.7852h-2.3945c-2.7539 0.007812-5.3047 0.87109-7.4102 2.3359zm60.141 1.2148c2.4961 0 4.5273 2.0273 4.5273 4.5234v44.469c0 2.5-2.0273 4.5273-4.5273 4.5273s-4.5234-2.0273-4.5234-4.5273v-44.469c0-2.4961 2.0234-4.5234 4.5234-4.5234zm-10.625 4.5234v44.469c0 2.5-2.0273 4.5273-4.5234 4.5273-2.5 0-4.5234-2.0273-4.5234-4.5273v-44.469c0-2.4961 2.0234-4.5234 4.5234-4.5234s4.5234 2.0273 4.5234 4.5234zm-19.676-4.5234c2.5 0 4.5273 2.0273 4.5273 4.5234v44.469c0 2.5-2.0273 4.5273-4.5273 4.5273s-4.5273-2.0273-4.5273-4.5273v-44.469c0-2.4961 2.0312-4.5234 4.5273-4.5234z"/>
  <path d="m310.89 78.414c0.003906 3.7969 3.082 6.8789 6.8867 6.8828 3.793-0.003906 6.875-3.0859 6.8867-6.8828h-0.003906c-0.003906-3.8047-3.0859-6.8867-6.8789-6.8906-3.8086 0.007812-6.8867 3.0898-6.8906 6.8906z"/>
  <path d="m342.76 70.398c0 3.8008-3.082 6.8867-6.8867 6.8867-3.8008 0-6.8867-3.0859-6.8867-6.8867 0-3.8047 3.0859-6.8867 6.8867-6.8867 3.8047 0 6.8867 3.082 6.8867 6.8867"/>
  <path d="m368.14 77.477c0.003906 3.8008 3.0859 6.8789 6.8828 6.8828 3.8008-0.003906 6.8789-3.082 6.8867-6.8828h-0.003906c-0.003906-3.8047-3.082-6.8789-6.8828-6.8867-3.7969 0.007812-6.8789 3.0859-6.8828 6.8867z"/>
  <path d="m348.27 72.512c0.003907 3.7969 3.082 6.8828 6.8867 6.8867 3.8047-0.003907 6.8789-3.0859 6.8906-6.8867-0.011719-3.8008-3.0859-6.8828-6.8906-6.8867-3.8047 0.003906-6.8828 3.0859-6.8867 6.8867z"/>
  
 </g>
</svg>
